<svg width="65" height="16" viewBox="0 0 65 16" fill="none" xmlns="http://www.w3.org/2000/svg">
<path d="M0.286797 15V0.999999H3.3668V15H0.286797ZM22.3655 15.42L20.8255 14.04C19.5855 14.84 18.1989 15.24 16.6655 15.24C14.5322 15.24 12.7589 14.54 11.3455 13.14C9.94555 11.74 9.24555 10.0267 9.24555 8C9.24555 5.98667 9.95221 4.28 11.3655 2.88C12.7922 1.46667 14.5722 0.76 16.7055 0.76C18.8389 0.76 20.6055 1.46 22.0055 2.86C23.4189 4.26 24.1255 5.97333 24.1255 8C24.1255 9.48 23.7122 10.82 22.8855 12.02L24.3255 13.24L22.3655 15.42ZM16.7055 12.4C17.3589 12.4 17.9722 12.2733 18.5455 12.02L16.2655 10.08L18.2255 7.88L20.5255 9.96C20.7789 9.4 20.9055 8.74667 20.9055 8C20.9055 6.77333 20.5055 5.73333 19.7055 4.88C18.9055 4.02667 17.8922 3.6 16.6655 3.6C15.4389 3.6 14.4322 4.02667 13.6455 4.88C12.8589 5.72 12.4655 6.76 12.4655 8C12.4655 9.22667 12.8655 10.2667 13.6655 11.12C14.4655 11.9733 15.4789 12.4 16.7055 12.4ZM29.8577 15V0.999999H33.1777L36.8577 6.92L40.5377 0.999999H43.8577V15H40.7977V5.86L36.8577 11.84H36.7777L32.8777 5.92V15H29.8577ZM62.341 13.14C60.9277 14.54 59.1543 15.24 57.021 15.24C54.8877 15.24 53.1143 14.54 51.701 13.14C50.301 11.74 49.601 10.0267 49.601 8C49.601 5.98667 50.3077 4.28 51.721 2.88C53.1477 1.46667 54.9277 0.76 57.061 0.76C59.1943 0.76 60.961 1.46 62.361 2.86C63.7743 4.26 64.481 5.97333 64.481 8C64.481 10.0133 63.7677 11.7267 62.341 13.14ZM54.021 11.12C54.821 11.9733 55.8343 12.4 57.061 12.4C58.2877 12.4 59.2943 11.98 60.081 11.14C60.8677 10.2867 61.261 9.24 61.261 8C61.261 6.77333 60.861 5.73333 60.061 4.88C59.261 4.02667 58.2477 3.6 57.021 3.6C55.7943 3.6 54.7877 4.02667 54.001 4.88C53.2143 5.72 52.821 6.76 52.821 8C52.821 9.22667 53.221 10.2667 54.021 11.12Z" fill="white"/>
</svg>
